<?xml version="1.0" encoding="UTF-8"?>
<svg width="400px" height="292px" viewBox="0 0 400 292" version="1.1" xmlns="http://www.w3.org/2000/svg" xmlns:xlink="http://www.w3.org/1999/xlink">
    <!-- Generator: Sketch 50.2 (55047) - http://www.bohemiancoding.com/sketch -->
    <title>Group</title>
    <desc>Created with Sketch.</desc>
    <defs></defs>
    <g id="Page-1" stroke="none" stroke-width="1" fill="none" fill-rule="evenodd">
        <g id="Artboard-3" transform="translate(-42.000000, -32.000000)">
            <g id="Group" transform="translate(42.000000, 32.000000)">
                <path d="M0,50.5 L400,50.5 L400,284 C400,288.418278 396.418278,292 392,292 L8,292 C3.581722,292 5.41083001e-16,288.418278 0,284 L0,50.5 Z" id="Rectangle-8" fill="#1F2D34"></path>
                <path d="M0.5,53.5 L399.5,53.5 L399.5,8 C399.5,3.85786438 396.142136,0.5 392,0.5 L8,0.5 C3.85786438,0.5 0.5,3.85786438 0.5,8 L0.5,53.5 Z" id="Rectangle-8" stroke="#E9E9E9" fill="#E9E9E9"></path>
                <circle id="Oval" fill="#FF4E54" cx="26" cy="28" r="10"></circle>
                <circle id="Oval" fill="#FFBA35" cx="60" cy="28" r="10"></circle>
                <circle id="Oval" fill="#00CD48" cx="94" cy="28" r="10"></circle>
                <text id="$-npm-install-plasma" font-family="RobotoMono-Bold, Roboto Mono" font-size="20" font-weight="bold" line-spacing="36" letter-spacing="-0.25555557" fill="#23EE77">
                    <tspan x="26" y="94">$ npm install plasma-chain -g</tspan>
                    <tspan x="26" y="130">$ plasma-chain account new</tspan>
                    <tspan x="26" y="166">$ plasma-chain deploy</tspan>
                </text>
            </g>
        </g>
    </g>
</svg>